<svg xmlns="http://www.w3.org/2000/svg" viewBox="0 0 1528 345.39"><defs><style>.cls-1{fill:#1a1a1a;}.cls-2{fill:#fa5353;}.cls-3{fill:#542bba;}.cls-4{fill:#ffc4b2;}</style></defs><g id="Capa_2" data-name="Capa 2"><g id="Capa_1-2" data-name="Capa 1"><polygon class="cls-1" points="587.24 3.2 523.74 3.2 523.74 237.09 681.8 237.09 681.8 185.93 587.24 185.93 587.24 3.2"/><path class="cls-1" d="M868.64,13.76Q842.83,0,811.08,0q-32,0-57.73,13.76T712.47,54.31q-15.13,26.77-15.14,65.83,0,38.83,15.14,65.61t40.88,40.66q25.75,13.88,57.73,13.88,31.75,0,57.56-13.76t41-40.55q15.2-26.78,15.19-65.84T909.64,54.31Q894.45,27.52,868.64,13.76ZM854,155.6q-5.55,14.46-16.33,21.93T811.08,185q-15.76,0-26.55-7.48T768.2,155.6q-5.55-14.44-5.54-35.46t5.54-35.46q5.53-14.45,16.33-21.92t26.55-7.49q15.76,0,26.56,7.49T854,84.68q5.53,14.44,5.53,35.46T854,155.6Z"/><rect class="cls-1" x="954.06" y="3.2" width="63.5" height="233.89"/><path class="cls-1" d="M1134.45,63q11-7.76,27-7.77a48.46,48.46,0,0,1,16.33,2.57,35.06,35.06,0,0,1,12.27,7.31,34.4,34.4,0,0,1,8,11.25,44.76,44.76,0,0,1,3.6,14.51h64.41q-1.83-21.81-10.39-38.72a88,88,0,0,0-22.62-28.49A98.67,98.67,0,0,0,1200.4,6.05a131.38,131.38,0,0,0-40.77-6q-31.53,0-57.1,13.76t-40.66,40.55q-15.07,26.77-15.08,65.83,0,38.83,14.79,65.67t40.32,40.66q25.51,13.82,57.73,13.82,25.69,0,45.11-7.88t32.6-20.84a98,98,0,0,0,20.39-28.33,86.69,86.69,0,0,0,8.34-30.21l-64.41-.45a41.25,41.25,0,0,1-4.4,13.53,34.06,34.06,0,0,1-8.4,10.22,36,36,0,0,1-12.1,6.45A51.54,51.54,0,0,1,1161,185q-15.42,0-26.38-7.25t-16.73-21.7q-5.78-14.44-5.77-35.92,0-20.33,5.65-34.83T1134.45,63Z"/><path class="cls-1" d="M1452.45,237.09H1521L1443.77,3.2H1357l-77.21,233.89h68.53l13.51-44.77h77.13Zm-76.3-92.28,23.31-77.2h1.83l23.3,77.2Z"/><path class="cls-2" d="M275.93,342.69A170.17,170.17,0,1,0,81.64,140.46Z"/><polyline class="cls-3" points="275.93 342.62 275.93 66.68 0 66.68"/><polygon class="cls-4" points="324.22 275.93 324.22 0 48.29 0 324.22 275.93"/><path d="M566.51,311.61h-4.4a14.06,14.06,0,0,0-1.77-4.56,14.49,14.49,0,0,0-3.2-3.66,14.26,14.26,0,0,0-4.35-2.43,15.54,15.54,0,0,0-5.27-.87,15.18,15.18,0,0,0-8.27,2.36,16.54,16.54,0,0,0-6,6.95,29.2,29.2,0,0,0,0,22.43,16.45,16.45,0,0,0,6,6.92,15.18,15.18,0,0,0,8.27,2.36,15.54,15.54,0,0,0,5.27-.87,14.89,14.89,0,0,0,4.35-2.42,14.14,14.14,0,0,0,5-8.23h4.4a19.16,19.16,0,0,1-2.19,6.14,18.65,18.65,0,0,1-4.07,5,18.38,18.38,0,0,1-5.68,3.32,20,20,0,0,1-7.05,1.2,19.21,19.21,0,0,1-10.72-3,20.48,20.48,0,0,1-7.34-8.55,33.29,33.29,0,0,1,0-26.08A20.45,20.45,0,0,1,536.8,299a19.28,19.28,0,0,1,10.72-3,20.21,20.21,0,0,1,7.05,1.18,18.38,18.38,0,0,1,5.68,3.32,19,19,0,0,1,6.26,11.14Z"/><path d="M678.75,320.6a29.75,29.75,0,0,1-2.67,13,20.59,20.59,0,0,1-7.34,8.56,20.47,20.47,0,0,1-21.47,0,20.57,20.57,0,0,1-7.33-8.56,33.36,33.36,0,0,1,0-26.06,20.55,20.55,0,0,1,7.34-8.57,20.51,20.51,0,0,1,21.46,0,20.62,20.62,0,0,1,7.34,8.57A29.68,29.68,0,0,1,678.75,320.6Zm-4.26,0a25.79,25.79,0,0,0-2.16-11,16.51,16.51,0,0,0-5.87-7,15.87,15.87,0,0,0-16.88,0,16.65,16.65,0,0,0-5.89,7,29.33,29.33,0,0,0,0,22.07,16.57,16.57,0,0,0,5.87,7,15.86,15.86,0,0,0,16.92,0,16.52,16.52,0,0,0,5.89-7A25.83,25.83,0,0,0,674.49,320.6Z"/><path d="M789.31,296.62v47.95H785l-28.33-40.15h-.37v40.15H752V296.62h4.24l28.42,40.2H785v-40.2Z"/><path d="M890.71,308.61a8.75,8.75,0,0,0-3.54-6.37,12.71,12.71,0,0,0-7.89-2.36,14.13,14.13,0,0,0-5.89,1.15,9.58,9.58,0,0,0-4,3.17,7.73,7.73,0,0,0-1.44,4.6,6.51,6.51,0,0,0,.82,3.32,8,8,0,0,0,2.21,2.45,15.24,15.24,0,0,0,3.1,1.74,28,28,0,0,0,3.42,1.22l5.06,1.45a34.93,34.93,0,0,1,4.59,1.62,18.7,18.7,0,0,1,4.2,2.47,11.51,11.51,0,0,1,3.07,3.62,10.75,10.75,0,0,1,1.16,5.14,12.44,12.44,0,0,1-2,6.91,13.7,13.7,0,0,1-5.71,4.86,23.05,23.05,0,0,1-17.42.16,13.56,13.56,0,0,1-5.67-4.51,12.77,12.77,0,0,1-2.32-6.67H867a8.34,8.34,0,0,0,1.87,4.8,10.16,10.16,0,0,0,4.26,3,17.39,17.39,0,0,0,12.24-.19,10.53,10.53,0,0,0,4.4-3.37,8.24,8.24,0,0,0,1.6-5.05,6.53,6.53,0,0,0-1.26-4.08,9.82,9.82,0,0,0-3.53-2.77,30.78,30.78,0,0,0-5.23-2l-5.74-1.69a21.24,21.24,0,0,1-8.75-4.66,10,10,0,0,1-3.11-7.59,11.52,11.52,0,0,1,2.07-6.8,13.9,13.9,0,0,1,5.62-4.59,18.65,18.65,0,0,1,8-1.64,18.21,18.21,0,0,1,7.91,1.63,13.92,13.92,0,0,1,5.47,4.51,11.82,11.82,0,0,1,2.16,6.52Z"/><path d="M1000.75,296.62h4.37v31.75a16.72,16.72,0,0,1-2.29,8.74,16.36,16.36,0,0,1-6.38,6.07,21.44,21.44,0,0,1-19,0,16.46,16.46,0,0,1-6.39-6.07,16.68,16.68,0,0,1-2.29-8.73V296.62h4.38v31.45a13.54,13.54,0,0,0,1.7,6.8,12.22,12.22,0,0,0,4.82,4.69,16.33,16.33,0,0,0,14.55,0,12.13,12.13,0,0,0,4.81-4.69,13.54,13.54,0,0,0,1.7-6.8Z"/><path d="M1080.49,344.57V296.62h4.38v44h22.85v3.93Z"/><path d="M1170.93,300.56v-3.94h34.77v3.94h-15.19v44h-4.38v-44Z"/><path d="M1315.51,320.6a29.75,29.75,0,0,1-2.67,13,20.59,20.59,0,0,1-7.34,8.56,20.47,20.47,0,0,1-21.47,0,20.43,20.43,0,0,1-7.33-8.56,33.24,33.24,0,0,1,0-26.06A20.48,20.48,0,0,1,1284,299a20.51,20.51,0,0,1,21.46,0,20.62,20.62,0,0,1,7.34,8.57A29.68,29.68,0,0,1,1315.51,320.6Zm-4.26,0a25.79,25.79,0,0,0-2.16-11,16.46,16.46,0,0,0-5.88-7,15.85,15.85,0,0,0-16.87,0,16.58,16.58,0,0,0-5.89,7,29.27,29.27,0,0,0,0,22.07,16.66,16.66,0,0,0,5.88,7,15.86,15.86,0,0,0,16.92,0,16.43,16.43,0,0,0,5.88-7A25.68,25.68,0,0,0,1311.25,320.6Z"/><path d="M1388.72,344.57V296.62h15.47a18,18,0,0,1,8.54,1.84,12.36,12.36,0,0,1,5.17,5.08,15.47,15.47,0,0,1,1.75,7.43,15.27,15.27,0,0,1-1.75,7.4,12.12,12.12,0,0,1-5.16,5,18.06,18.06,0,0,1-8.48,1.81h-13.18v-4h13.07a14,14,0,0,0,6.24-1.24,8.27,8.27,0,0,0,3.72-3.53,11.35,11.35,0,0,0,1.23-5.44,11.7,11.7,0,0,0-1.24-5.49,8.55,8.55,0,0,0-3.74-3.64,13.74,13.74,0,0,0-6.28-1.28h-11v44Zm21.14-21.63,11.8,21.63h-5.06l-11.68-21.63Z"/><path d="M1493,344.57h-4.59l17.44-47.95h4.69L1528,344.57h-4.59l-15-42.26h-.33Zm3.3-18.38h23.79v3.94h-23.79Z"/></g></g></svg>